#!OML:ASF E:/inclinewalkrobotboard/Project1/Captureday1/Session1/subject1.ASF
:FULLY-SPECIFIED
:DEGREES
213
root 0 0 0 0.42641023830502567 -24.744852645338106 -1.5326767122599412
lowerback 16.209693444626655 0.9903272210582887 -1.1598976302358723
upperback 4.5731418260159336 0.9366581997872669 -0.1656625098750238
thorax -4.156777928227454 0.43410541460935603 0.27979297777205325
lowerneck -4.604128759314966 -6.947951507608762 -8.642018112897576
upperneck -1.9369841756588269 -9.30524062756018 12.635364443135938
head 0.942124887345094 -4.519640075969709 4.933546185036857
rclavicle -3.2364473474328956E-15 9.718025203260813E-17
rhumerus -8.893493682274366 -1.1738402246244242 -70.31877284478293
rradius 12.545319837219473
rwrist 40.917473875265806
rhand -6.781903068693625 19.010155859976678
rfingers 7.125020000000034
rthumb 19.04105212525813 -10.654894586212563
lclavicle 8.772245400137953E-17 -6.0389197549632296E-18
lhumerus 18.922165276123238 -32.88867920155822 69.50531457897135
lradius 126.04252764750193
lwrist 54.84134628635887
lhand -27.231566574589003 43.08426315350058
lfingers 7.143996051046903
lthumb -0.4927296408525965 52.84109158657771
rfemur -34.28650902591124 4.133614533925531 7.916218636149471
rtibia 58.324486992847184
rfoot -3.089870891241942 -8.917152469406819
rtoes -3.336916841863551
lfemur -4.271376851807085 -4.969538075115647 -15.169529088683667
ltibia 24.89044428392934
lfoot -17.809546227262086 15.114186037349691
ltoes -1.058664107299495
214
root 0 0 0 0.45941162816239967 -25.416435931323015 -1.4172273847672912
lowerback 16.343450306772663 0.9982568575138504 -1.0428525199786138
upperback 4.5888370001120435 0.9531102675976506 -0.13932559129659883
thorax -4.211286590477505 0.4414369862542892 0.23842058720281073
lowerneck -4.722832557010282 -6.817734814753118 -8.513041631915673
upperneck -2.2964853869992456 -9.097238734604195 12.424148683263166
head 0.8319087112961259 -4.42261914012107 4.857860624963735
rclavicle -3.2645691900353578E-15 1.0393638533243518E-16
rhumerus -8.728064706623142 -1.4708685610972232 -70.16464226975509
rradius 12.370713223513086
rwrist 41.073979606301904
rhand -6.7801743173549305 19.112340787172243
rfingers 7.125020000000034
rthumb 19.0421027149995 -10.554819479411556
lclavicle 6.660554503301474E-17 -1.2469562587097308E-17
lhumerus 19.11257150411967 -32.55802198562101 69.27086667198338
lradius 125.74597975722645
lwrist 54.73390611863179
lhand -27.316372734367995 43.02782182373473
lfingers 7.143886533930222
lthumb -0.5760656593624578 52.860600797439886
rfemur -34.400933743377124 4.006937422052511 7.9126793012514565
rtibia 58.58508849868227
rfoot -2.9486682262142097 -8.87949063524965
rtoes -3.252515298868515
lfemur -4.310747387129858 -4.922355388137097 -15.179560123097259
ltibia 24.97200417910522
lfoot -17.815955770495798 15.117014938306506
ltoes -1.031675163499079
215
root 0 0 0 0.48509109099408754 -26.006243508340994 -1.2944275447765432
lowerback 16.47404249772191 0.9976033525476524 -0.9573500678426098
upperback 4.613686430801934 0.955448094892995 -0.11436310502197888
thorax -4.254696938077936 0.4418719201207898 0.21473757162821708
lowerneck -4.798172381725483 -6.706103110165476 -8.410133500814366
upperneck -2.5831421873494556 -8.920770965382816 12.253242776801304
head 0.7393588596382958 -4.341165281608118 4.798182764096499
rclavicle -3.288263960055463E-15 1.0919150367191882E-16
rhumerus -8.745253670676675 -1.6077046689430006 -70.1242366642244
rradius 12.151959465729789
rwrist 41.235545279770875
rhand -6.716231017748294 19.224666616297355
rfingers 7.125020000000034
rthumb 19.103315788094477 -10.443240839667535
lclavicle 5.457697598682589E-17 -1.6838572157908205E-17
lhumerus 19.156724478298287 -32.38513258540657 69.17746078281839
lradius 125.53176984319785
lwrist 54.61500297362986
lhand -27.338469902617085 42.981440864158685
lfingers 7.143724992421616
lthumb -0.5986491220642733 52.881881409567576
rfemur -34.412612806227806 3.9425830397215718 7.938481543971037
rtibia 58.688285228599156
rfoot -2.902305850260964 -8.874852328941785
rtoes -3.200710829237417
lfemur -4.406368304697477 -4.867942561496999 -15.17368278891218
ltibia 25.116858376744645
lfoot -17.789250550923573 15.081204925332521
ltoes -1.029450293506616
216
root 0 0 0 0.5035843271253491 -26.529161612839054 -1.1691888138005833
lowerback 16.598441269931012 0.9905361574479504 -0.8970239295656927
upperback 4.6443673379037 0.9471992760820255 -0.09114416407134107
thorax -4.288772012263266 0.4371773417562589 0.20443945116366244
lowerneck -4.839334935383235 -6.611104776687918 -8.329583223780041
upperneck -2.813941523011474 -8.771978083697963 12.11712256371992
head 0.6604796966922488 -4.273286187429048 4.752110425815527
rclavicle -3.3069946008890546E-15 1.120719009894116E-16
rhumerus -8.80052604737986 -1.6887607733693581 -70.1147364777669
rradius 11.954264805096976
rwrist 41.375654730516786
rhand -6.647153533316693 19.323351321662336
rfingers 7.125020000000034
rthumb 19.16957129446673 -10.344947835264414
lclavicle 4.4672216877927945E-17 -1.8744077226437968E-17
lhumerus 19.12889414629214 -32.318893560267 69.16541552146411
lradius 125.40300727334912
lwrist 54.51855827179244
lhand -27.328702316185087 42.95010163616851
lfingers 7.143585283027818
lthumb -0.5900189740030655 52.900250542013985
rfemur -34.36768960170482 3.919189077419432 7.977271716539003
rtibia 58.69555204974229
rfoot -2.9127735585491923 -8.88773890895078
rtoes -3.173044457221632
lfemur -4.485425899788053 -4.828321087904769 -15.165892047704627
ltibia 25.225920739914052
lfoot -17.764502390509445 15.055055638565005
ltoes -1.0274661433264
